<svg xmlns="http://www.w3.org/2000/svg" xmlns:xlink="http://www.w3.org/1999/xlink" version="1.1" id="Layer_1" x="0px" y="0px" width="100%" viewBox="0 0 1024 1024" enable-background="new 0 0 1024 1024" xml:space="preserve">
<path fill="#000000" opacity="1.000000" stroke="none" d=" M416.586609,224.156952   C435.144043,224.789307 451.173981,230.936737 465.337036,242.111298   C477.921326,252.040176 485.012634,265.114502 488.424561,280.680969   C491.697601,295.613678 492.297394,310.649323 492.265167,325.826508   C492.162933,373.983246 492.222443,422.140289 492.214417,470.297241   C492.213257,477.260712 492.200439,477.266388 485.365936,477.272339   C475.034698,477.281342 464.695068,477.037201 454.375763,477.390045   C449.327911,477.562622 447.793549,475.973816 447.809357,470.896240   C447.968262,419.907074 447.984406,368.916931 447.842499,317.927643   C447.801636,303.241425 444.373993,289.582458 433.796600,278.493652   C426.661652,271.013763 417.521057,268.462891 407.751099,267.361542   C392.347748,265.625122 376.874695,265.438507 361.392120,265.231903   C356.386902,265.165131 355.242310,267.079071 355.263458,271.691925   C355.413269,304.351288 355.340240,337.011719 355.339355,369.671783   C355.338470,403.331665 355.343353,436.991516 355.334686,470.651398   C355.332977,477.245056 355.309723,477.258270 348.691895,477.266663   C338.360657,477.279724 328.022156,477.045410 317.701294,477.373169   C312.756927,477.530212 311.551422,475.695953 311.560120,471.020508   C311.680176,406.367096 311.634705,341.713440 311.626831,277.059814   C311.625397,265.321564 311.619324,265.326874 300.149597,265.330078   C281.153442,265.335419 262.157257,265.330688 243.161102,265.335205   C234.645935,265.337250 234.371811,265.613831 234.371979,273.942932   C234.373337,339.263092 234.375702,404.583252 234.371307,469.903412   C234.370819,477.274292 234.352264,477.272308 226.965866,477.275421   C216.801270,477.279724 206.636658,477.296112 196.472061,477.290497   C190.220154,477.287048 190.012802,477.094330 190.013245,470.837769   C190.018295,400.352051 190.034073,329.866302 190.043381,259.380585   C190.044739,249.049362 190.164505,238.715347 189.953445,228.388275   C189.865387,224.079803 191.337128,222.628754 195.739609,222.640808   C260.891479,222.819199 326.043823,222.803101 391.195801,222.957184   C399.506226,222.976837 407.815033,223.695145 416.586609,224.156952  z"/>
    <path fill="#000000" opacity="1.000000" stroke="none" d=" M533.744629,708.000000   C533.747131,657.523010 533.748413,607.546021 533.754089,557.569031   C533.755005,549.790955 533.764282,549.777100 541.330383,549.777100   C608.132935,549.777039 674.936340,549.605591 741.737549,549.905457   C759.279053,549.984131 776.563416,552.849609 792.773010,560.160400   C818.711609,571.859192 831.057922,593.029724 834.270752,620.385437   C837.955750,651.762756 835.863159,683.265259 835.905151,714.710754   C835.917053,723.622742 834.641418,732.672485 832.827393,741.425110   C827.498108,767.138916 812.678772,785.046936 787.845703,794.504883   C772.533264,800.336731 756.604309,802.947144 740.434692,803.017212   C673.966553,803.305359 607.496460,803.138794 541.027039,803.134460   C533.811035,803.133972 533.791565,803.118774 533.786438,795.959595   C533.765564,766.806396 533.757629,737.653198 533.744629,708.000000  M791.707458,708.488770   C791.750183,685.335022 791.700134,662.180542 791.889099,639.027954   C791.950134,631.546875 790.258179,624.492065 787.767517,617.590454   C782.075989,601.819580 766.960754,592.692139 747.619080,592.507751   C702.980042,592.082214 658.334106,592.382751 613.690979,592.388855   C604.029419,592.390198 594.367859,592.408691 584.706360,592.386108   C580.430908,592.376099 578.144104,593.551514 578.162598,598.725037   C578.348206,650.696960 578.327454,702.669922 578.176636,754.642029   C578.163330,759.216431 580.066711,760.735901 584.038635,760.386963   C593.206543,759.581543 602.344177,760.645203 611.500061,760.627869   C656.309082,760.542847 701.119507,760.816040 745.927063,760.557190   C758.283936,760.485840 770.155090,757.519714 779.246582,748.214722   C789.778137,737.435791 792.177673,723.882812 791.707458,708.488770  z"/>
    <path fill="#000000" opacity="1.000000" stroke="none" d=" M836.169556,386.852692   C834.982788,400.250336 834.275146,413.271851 830.025452,425.661652   C821.631592,450.134033 803.746399,464.178162 779.501343,471.158295   C765.305115,475.245361 750.813416,476.903809 736.089722,476.904694   C700.593506,476.906769 665.094910,477.159271 629.602051,476.812347   C609.109741,476.612061 589.065308,473.287506 570.852722,463.149323   C548.557434,450.738464 538.519653,430.588867 535.632812,406.036957   C532.019287,375.304688 533.805481,344.458984 534.012817,313.684235   C534.134399,295.630798 536.036255,277.444672 545.572083,261.134216   C553.933960,246.831650 566.104736,237.334183 581.353210,231.414062   C597.244080,225.244568 613.864075,222.915894 630.739258,222.800110   C667.233643,222.549713 703.734070,222.435333 740.225830,222.832291   C760.166626,223.049194 779.734680,226.175323 797.666748,235.707123   C818.509583,246.786133 829.660767,264.746277 833.331238,287.611694   C838.593323,320.392120 835.317627,353.447510 836.169556,386.852692  M791.714539,325.500092   C791.762085,321.169647 791.832153,316.839294 791.852783,312.508698   C791.899597,302.671997 789.977539,293.209808 784.913879,284.764465   C776.148132,270.144531 761.695129,265.664062 746.002869,265.503540   C705.192566,265.086029 664.374634,265.286713 623.560608,265.450256   C613.962158,265.488708 604.686035,267.693634 596.479248,272.947876   C583.200378,281.449371 578.809143,294.848633 578.434753,309.452301   C577.811584,333.759125 578.237549,358.091705 578.107727,382.412872   C578.063843,390.630585 578.905579,398.676727 581.354797,406.541473   C584.090637,415.326752 589.176514,422.297180 597.152649,426.995911   C607.231995,432.933685 618.129822,434.252380 629.743164,434.011414   C655.054199,433.486328 680.383606,433.838409 705.705505,433.850189   C718.032837,433.855957 730.373779,433.556152 742.683228,434.039551   C752.584595,434.428375 761.966614,432.938660 770.611267,428.261017   C786.779480,419.512299 791.533508,404.444214 791.767151,387.469086   C792.046753,367.150146 791.757019,346.823425 791.714539,325.500092  z"/>
    <path fill="#000000" opacity="1.000000" stroke="none" d=" M200.959564,762.913330   C194.006622,749.611511 191.594101,735.511658 190.756485,721.163086   C189.250519,695.365540 190.035400,669.523376 190.154709,643.704712   C190.223129,628.895386 191.481598,614.068726 196.500122,599.940735   C204.307129,577.962769 219.978561,564.116028 241.849945,556.823853   C256.846161,551.824036 272.317322,549.865234 288.024445,549.813171   C324.521820,549.692139 361.021851,549.559387 397.516724,549.885620   C412.681549,550.021179 427.679108,552.197998 442.103485,557.343750   C468.409637,566.728149 483.945496,585.258484 489.349304,612.551697   C491.265442,622.229492 492.130768,632.021484 492.235229,641.825989   C492.480255,664.821960 492.578369,687.826477 492.216187,710.819336   C492.003998,724.291199 490.768585,737.714966 486.579102,750.716980   C478.544403,775.652588 460.751434,789.966492 436.419128,797.179382   C421.794556,801.514526 406.768616,803.143188 391.545929,803.140625   C356.381409,803.134766 321.214722,803.358582 286.053253,803.028870   C269.346008,802.872314 252.909149,800.276733 237.202545,794.118896   C221.594910,787.999878 209.375671,777.949402 200.959564,762.913330  M416.127319,758.706482   C437.358124,753.125305 447.359467,738.033020 447.788422,715.222961   C448.273987,689.403564 447.887299,663.567871 447.896545,637.739258   C447.899567,629.268738 446.131531,621.128174 442.229370,613.684509   C434.198151,598.364502 420.034180,592.731934 404.009125,592.537903   C362.189575,592.031433 320.341370,591.615662 278.540314,592.632385   C249.128998,593.347778 235.954529,609.409790 234.660095,636.172791   C233.373550,662.772400 233.986847,689.490967 234.548462,716.140930   C234.811646,728.629028 238.275528,740.555664 248.162582,749.403076   C257.347504,757.622253 268.644470,760.519348 280.508728,760.581177   C319.499817,760.784180 358.493134,760.516235 397.485138,760.611877   C403.534637,760.626709 409.436249,760.083130 416.127319,758.706482  z"/>
</svg>